<mxfile host="app.diagrams.net" agent="Mozilla/5.0 (Windows NT 10.0; Win64; x64) AppleWebKit/537.36 (KHTML, like Gecko) Chrome/135.0.0.0 Safari/537.36 Edg/135.0.0.0" version="26.2.4">
  <diagram name="P치gina-1" id="F3_zdJklj_XF_64WUXii">
    <mxGraphModel dx="1366" dy="2371" grid="1" gridSize="10" guides="1" tooltips="1" connect="1" arrows="1" fold="1" page="1" pageScale="1" pageWidth="827" pageHeight="1169" math="0" shadow="0">
      <root>
        <mxCell id="0" />
        <mxCell id="1" parent="0" />
        <mxCell id="06ex_0QSgv7qzQLSX6dj-128" value="&lt;b&gt;M치quina&lt;/b&gt;" style="rounded=1;whiteSpace=wrap;html=1;" parent="1" vertex="1">
          <mxGeometry x="290" y="80" width="90" height="30" as="geometry" />
        </mxCell>
        <mxCell id="06ex_0QSgv7qzQLSX6dj-146" value="&lt;b&gt;&lt;u&gt;ID_m치quina&lt;/u&gt;&lt;/b&gt;" style="ellipse;whiteSpace=wrap;html=1;" parent="1" vertex="1">
          <mxGeometry x="130" y="90" width="100" height="30" as="geometry" />
        </mxCell>
        <mxCell id="06ex_0QSgv7qzQLSX6dj-147" value="Modelo" style="ellipse;whiteSpace=wrap;html=1;" parent="1" vertex="1">
          <mxGeometry x="210" y="40" width="50" height="20" as="geometry" />
        </mxCell>
        <mxCell id="06ex_0QSgv7qzQLSX6dj-148" value="Fabricante" style="ellipse;whiteSpace=wrap;html=1;" parent="1" vertex="1">
          <mxGeometry x="220" y="10" width="70" height="20" as="geometry" />
        </mxCell>
        <mxCell id="06ex_0QSgv7qzQLSX6dj-149" value="Status" style="ellipse;whiteSpace=wrap;html=1;" parent="1" vertex="1">
          <mxGeometry x="290" y="15" width="40" height="20" as="geometry" />
        </mxCell>
        <mxCell id="06ex_0QSgv7qzQLSX6dj-150" value="Tipo" style="ellipse;whiteSpace=wrap;html=1;" parent="1" vertex="1">
          <mxGeometry x="170" y="60" width="40" height="20" as="geometry" />
        </mxCell>
        <mxCell id="06ex_0QSgv7qzQLSX6dj-151" value="" style="endArrow=none;html=1;rounded=0;" parent="1" source="06ex_0QSgv7qzQLSX6dj-149" target="06ex_0QSgv7qzQLSX6dj-128" edge="1">
          <mxGeometry width="50" height="50" relative="1" as="geometry">
            <mxPoint x="230" y="180" as="sourcePoint" />
            <mxPoint x="280" y="130" as="targetPoint" />
          </mxGeometry>
        </mxCell>
        <mxCell id="06ex_0QSgv7qzQLSX6dj-152" value="" style="endArrow=none;html=1;rounded=0;" parent="1" source="06ex_0QSgv7qzQLSX6dj-148" target="06ex_0QSgv7qzQLSX6dj-128" edge="1">
          <mxGeometry width="50" height="50" relative="1" as="geometry">
            <mxPoint x="240" y="190" as="sourcePoint" />
            <mxPoint x="290" y="140" as="targetPoint" />
          </mxGeometry>
        </mxCell>
        <mxCell id="06ex_0QSgv7qzQLSX6dj-153" value="" style="endArrow=none;html=1;rounded=0;" parent="1" source="06ex_0QSgv7qzQLSX6dj-147" target="06ex_0QSgv7qzQLSX6dj-128" edge="1">
          <mxGeometry width="50" height="50" relative="1" as="geometry">
            <mxPoint x="250" y="200" as="sourcePoint" />
            <mxPoint x="300" y="150" as="targetPoint" />
          </mxGeometry>
        </mxCell>
        <mxCell id="06ex_0QSgv7qzQLSX6dj-154" value="" style="endArrow=none;html=1;rounded=0;" parent="1" source="06ex_0QSgv7qzQLSX6dj-150" target="06ex_0QSgv7qzQLSX6dj-128" edge="1">
          <mxGeometry width="50" height="50" relative="1" as="geometry">
            <mxPoint x="260" y="210" as="sourcePoint" />
            <mxPoint x="310" y="160" as="targetPoint" />
          </mxGeometry>
        </mxCell>
        <mxCell id="06ex_0QSgv7qzQLSX6dj-155" value="" style="endArrow=none;html=1;rounded=0;" parent="1" source="06ex_0QSgv7qzQLSX6dj-128" target="06ex_0QSgv7qzQLSX6dj-146" edge="1">
          <mxGeometry width="50" height="50" relative="1" as="geometry">
            <mxPoint x="270" y="220" as="sourcePoint" />
            <mxPoint x="320" y="170" as="targetPoint" />
          </mxGeometry>
        </mxCell>
        <mxCell id="06ex_0QSgv7qzQLSX6dj-255" value="Data_Instalacao" style="ellipse;whiteSpace=wrap;html=1;" parent="1" vertex="1">
          <mxGeometry x="314" y="-20" width="100" height="30" as="geometry" />
        </mxCell>
        <mxCell id="06ex_0QSgv7qzQLSX6dj-256" value="" style="endArrow=none;html=1;rounded=0;" parent="1" source="06ex_0QSgv7qzQLSX6dj-255" target="06ex_0QSgv7qzQLSX6dj-128" edge="1">
          <mxGeometry width="50" height="50" relative="1" as="geometry">
            <mxPoint x="170" y="160" as="sourcePoint" />
            <mxPoint x="259" y="50" as="targetPoint" />
          </mxGeometry>
        </mxCell>
        <mxCell id="06ex_0QSgv7qzQLSX6dj-257" value="&lt;b&gt;Jogador&lt;/b&gt;" style="rounded=1;whiteSpace=wrap;html=1;" parent="1" vertex="1">
          <mxGeometry x="660" y="280" width="90" height="30" as="geometry" />
        </mxCell>
        <mxCell id="06ex_0QSgv7qzQLSX6dj-258" value="&lt;b&gt;&lt;u&gt;ID_Jogador&lt;/u&gt;&lt;/b&gt;" style="ellipse;whiteSpace=wrap;html=1;" parent="1" vertex="1">
          <mxGeometry x="590" y="322.5" width="100" height="30" as="geometry" />
        </mxCell>
        <mxCell id="06ex_0QSgv7qzQLSX6dj-259" value="Email" style="ellipse;whiteSpace=wrap;html=1;" parent="1" vertex="1">
          <mxGeometry x="612.5" y="247.5" width="50" height="20" as="geometry" />
        </mxCell>
        <mxCell id="06ex_0QSgv7qzQLSX6dj-261" value="Pontuacao_Total" style="ellipse;whiteSpace=wrap;html=1;" parent="1" vertex="1">
          <mxGeometry x="720" y="220" width="130" height="30" as="geometry" />
        </mxCell>
        <mxCell id="06ex_0QSgv7qzQLSX6dj-262" value="Nome" style="ellipse;whiteSpace=wrap;html=1;" parent="1" vertex="1">
          <mxGeometry x="545" y="310" width="40" height="20" as="geometry" />
        </mxCell>
        <mxCell id="06ex_0QSgv7qzQLSX6dj-263" value="" style="endArrow=none;html=1;rounded=0;" parent="1" source="06ex_0QSgv7qzQLSX6dj-261" target="06ex_0QSgv7qzQLSX6dj-257" edge="1">
          <mxGeometry width="50" height="50" relative="1" as="geometry">
            <mxPoint x="600" y="395" as="sourcePoint" />
            <mxPoint x="650" y="345" as="targetPoint" />
          </mxGeometry>
        </mxCell>
        <mxCell id="06ex_0QSgv7qzQLSX6dj-265" value="" style="endArrow=none;html=1;rounded=0;" parent="1" source="06ex_0QSgv7qzQLSX6dj-259" target="06ex_0QSgv7qzQLSX6dj-257" edge="1">
          <mxGeometry width="50" height="50" relative="1" as="geometry">
            <mxPoint x="620" y="415" as="sourcePoint" />
            <mxPoint x="670" y="365" as="targetPoint" />
          </mxGeometry>
        </mxCell>
        <mxCell id="06ex_0QSgv7qzQLSX6dj-266" value="" style="endArrow=none;html=1;rounded=0;" parent="1" source="06ex_0QSgv7qzQLSX6dj-262" target="06ex_0QSgv7qzQLSX6dj-257" edge="1">
          <mxGeometry width="50" height="50" relative="1" as="geometry">
            <mxPoint x="630" y="425" as="sourcePoint" />
            <mxPoint x="680" y="375" as="targetPoint" />
          </mxGeometry>
        </mxCell>
        <mxCell id="06ex_0QSgv7qzQLSX6dj-267" value="" style="endArrow=none;html=1;rounded=0;" parent="1" source="06ex_0QSgv7qzQLSX6dj-257" target="06ex_0QSgv7qzQLSX6dj-258" edge="1">
          <mxGeometry width="50" height="50" relative="1" as="geometry">
            <mxPoint x="640" y="435" as="sourcePoint" />
            <mxPoint x="690" y="385" as="targetPoint" />
          </mxGeometry>
        </mxCell>
        <mxCell id="06ex_0QSgv7qzQLSX6dj-268" value="Telefone" style="ellipse;whiteSpace=wrap;html=1;" parent="1" vertex="1">
          <mxGeometry x="610" y="210" width="70" height="20" as="geometry" />
        </mxCell>
        <mxCell id="06ex_0QSgv7qzQLSX6dj-269" value="" style="endArrow=none;html=1;rounded=0;" parent="1" source="06ex_0QSgv7qzQLSX6dj-268" target="06ex_0QSgv7qzQLSX6dj-257" edge="1">
          <mxGeometry width="50" height="50" relative="1" as="geometry">
            <mxPoint x="540" y="375" as="sourcePoint" />
            <mxPoint x="629" y="265" as="targetPoint" />
          </mxGeometry>
        </mxCell>
        <mxCell id="06ex_0QSgv7qzQLSX6dj-271" value="&lt;b&gt;Funcion치rio&lt;/b&gt;" style="rounded=1;whiteSpace=wrap;html=1;" parent="1" vertex="1">
          <mxGeometry x="660" y="647.5" width="90" height="30" as="geometry" />
        </mxCell>
        <mxCell id="06ex_0QSgv7qzQLSX6dj-272" value="Nome" style="ellipse;whiteSpace=wrap;html=1;" parent="1" vertex="1">
          <mxGeometry x="605" y="562.5" width="40" height="20" as="geometry" />
        </mxCell>
        <mxCell id="06ex_0QSgv7qzQLSX6dj-273" value="" style="endArrow=none;html=1;rounded=0;" parent="1" source="06ex_0QSgv7qzQLSX6dj-272" target="06ex_0QSgv7qzQLSX6dj-271" edge="1">
          <mxGeometry width="50" height="50" relative="1" as="geometry">
            <mxPoint x="670" y="757.5" as="sourcePoint" />
            <mxPoint x="715" y="649.84375" as="targetPoint" />
          </mxGeometry>
        </mxCell>
        <mxCell id="06ex_0QSgv7qzQLSX6dj-275" value="Cargo" style="ellipse;whiteSpace=wrap;html=1;" parent="1" vertex="1">
          <mxGeometry x="660" y="590" width="40" height="20" as="geometry" />
        </mxCell>
        <mxCell id="06ex_0QSgv7qzQLSX6dj-276" value="" style="endArrow=none;html=1;rounded=0;" parent="1" source="06ex_0QSgv7qzQLSX6dj-275" target="06ex_0QSgv7qzQLSX6dj-271" edge="1">
          <mxGeometry width="50" height="50" relative="1" as="geometry">
            <mxPoint x="743" y="727.5" as="sourcePoint" />
            <mxPoint x="760" y="617.5" as="targetPoint" />
          </mxGeometry>
        </mxCell>
        <mxCell id="06ex_0QSgv7qzQLSX6dj-278" value="Turno" style="ellipse;whiteSpace=wrap;html=1;" parent="1" vertex="1">
          <mxGeometry x="590" y="688.75" width="40" height="20" as="geometry" />
        </mxCell>
        <mxCell id="06ex_0QSgv7qzQLSX6dj-279" value="" style="endArrow=none;html=1;rounded=0;" parent="1" source="06ex_0QSgv7qzQLSX6dj-278" target="06ex_0QSgv7qzQLSX6dj-271" edge="1">
          <mxGeometry width="50" height="50" relative="1" as="geometry">
            <mxPoint x="690" y="777.5" as="sourcePoint" />
            <mxPoint x="707" y="667.5" as="targetPoint" />
          </mxGeometry>
        </mxCell>
        <mxCell id="06ex_0QSgv7qzQLSX6dj-280" value="Sal치rio" style="ellipse;whiteSpace=wrap;html=1;" parent="1" vertex="1">
          <mxGeometry x="615" y="607.5" width="40" height="20" as="geometry" />
        </mxCell>
        <mxCell id="06ex_0QSgv7qzQLSX6dj-281" value="" style="endArrow=none;html=1;rounded=0;" parent="1" source="06ex_0QSgv7qzQLSX6dj-280" target="06ex_0QSgv7qzQLSX6dj-271" edge="1">
          <mxGeometry width="50" height="50" relative="1" as="geometry">
            <mxPoint x="800" y="737.5" as="sourcePoint" />
            <mxPoint x="817" y="627.5" as="targetPoint" />
          </mxGeometry>
        </mxCell>
        <mxCell id="06ex_0QSgv7qzQLSX6dj-291" value="&lt;b&gt;Gerente&lt;/b&gt;" style="rounded=1;whiteSpace=wrap;html=1;" parent="1" vertex="1">
          <mxGeometry x="282.04" y="642.74" width="90" height="30" as="geometry" />
        </mxCell>
        <mxCell id="06ex_0QSgv7qzQLSX6dj-301" value="" style="endArrow=none;html=1;rounded=0;" parent="1" source="nlP5LJQIT9z9BfBxfYn8-37" target="06ex_0QSgv7qzQLSX6dj-291" edge="1">
          <mxGeometry width="50" height="50" relative="1" as="geometry">
            <mxPoint x="322.04" y="602.24" as="sourcePoint" />
            <mxPoint x="292.04" y="670.74" as="targetPoint" />
          </mxGeometry>
        </mxCell>
        <mxCell id="06ex_0QSgv7qzQLSX6dj-302" value="&lt;b&gt;&lt;u&gt;ID_Funcionario&lt;/u&gt;&lt;/b&gt;" style="ellipse;whiteSpace=wrap;html=1;" parent="1" vertex="1">
          <mxGeometry x="730" y="686.25" width="100" height="25" as="geometry" />
        </mxCell>
        <mxCell id="06ex_0QSgv7qzQLSX6dj-303" value="" style="endArrow=none;html=1;rounded=0;" parent="1" source="06ex_0QSgv7qzQLSX6dj-302" target="06ex_0QSgv7qzQLSX6dj-271" edge="1">
          <mxGeometry width="50" height="50" relative="1" as="geometry">
            <mxPoint x="580" y="668.5" as="sourcePoint" />
            <mxPoint x="645" y="677.5" as="targetPoint" />
          </mxGeometry>
        </mxCell>
        <mxCell id="06ex_0QSgv7qzQLSX6dj-304" value="&lt;b&gt;Card_fichas&lt;/b&gt;" style="rounded=1;whiteSpace=wrap;html=1;" parent="1" vertex="1">
          <mxGeometry x="660" y="467.5" width="90" height="30" as="geometry" />
        </mxCell>
        <mxCell id="06ex_0QSgv7qzQLSX6dj-305" value="Fichas_Atuais" style="ellipse;whiteSpace=wrap;html=1;dashed=1;" parent="1" vertex="1">
          <mxGeometry x="505" y="437.5" width="100" height="20" as="geometry" />
        </mxCell>
        <mxCell id="06ex_0QSgv7qzQLSX6dj-306" value="" style="endArrow=none;html=1;rounded=0;" parent="1" source="06ex_0QSgv7qzQLSX6dj-305" target="06ex_0QSgv7qzQLSX6dj-304" edge="1">
          <mxGeometry width="50" height="50" relative="1" as="geometry">
            <mxPoint x="665" y="577.5" as="sourcePoint" />
            <mxPoint x="710" y="469.84375" as="targetPoint" />
          </mxGeometry>
        </mxCell>
        <mxCell id="06ex_0QSgv7qzQLSX6dj-307" value="Fichas_Usadas" style="ellipse;whiteSpace=wrap;html=1;" parent="1" vertex="1">
          <mxGeometry x="565" y="397.5" width="100" height="30" as="geometry" />
        </mxCell>
        <mxCell id="06ex_0QSgv7qzQLSX6dj-308" value="" style="endArrow=none;html=1;rounded=0;" parent="1" source="06ex_0QSgv7qzQLSX6dj-307" target="06ex_0QSgv7qzQLSX6dj-304" edge="1">
          <mxGeometry width="50" height="50" relative="1" as="geometry">
            <mxPoint x="738" y="547.5" as="sourcePoint" />
            <mxPoint x="755" y="437.5" as="targetPoint" />
          </mxGeometry>
        </mxCell>
        <mxCell id="06ex_0QSgv7qzQLSX6dj-309" value="Custo" style="ellipse;whiteSpace=wrap;html=1;" parent="1" vertex="1">
          <mxGeometry x="740" y="440" width="40" height="20" as="geometry" />
        </mxCell>
        <mxCell id="06ex_0QSgv7qzQLSX6dj-310" value="" style="endArrow=none;html=1;rounded=0;" parent="1" source="06ex_0QSgv7qzQLSX6dj-309" target="06ex_0QSgv7qzQLSX6dj-304" edge="1">
          <mxGeometry width="50" height="50" relative="1" as="geometry">
            <mxPoint x="685" y="597.5" as="sourcePoint" />
            <mxPoint x="702" y="487.5" as="targetPoint" />
          </mxGeometry>
        </mxCell>
        <mxCell id="06ex_0QSgv7qzQLSX6dj-313" value="&lt;span style=&quot;font-size:11.0pt;line-height:107%;&lt;br/&gt;font-family:&amp;quot;Aptos&amp;quot;,sans-serif;mso-ascii-theme-font:minor-latin;mso-fareast-font-family:&lt;br/&gt;Aptos;mso-fareast-theme-font:minor-latin;mso-hansi-theme-font:minor-latin;&lt;br/&gt;mso-bidi-font-family:&amp;quot;Times New Roman&amp;quot;;mso-bidi-theme-font:minor-bidi;&lt;br/&gt;mso-ansi-language:PT;mso-fareast-language:EN-US;mso-bidi-language:AR-SA&quot;&gt;ID_card_fichas&lt;/span&gt;" style="ellipse;whiteSpace=wrap;html=1;fontStyle=5" parent="1" vertex="1">
          <mxGeometry x="525" y="502.5" width="120" height="25" as="geometry" />
        </mxCell>
        <mxCell id="06ex_0QSgv7qzQLSX6dj-314" value="" style="endArrow=none;html=1;rounded=0;" parent="1" source="06ex_0QSgv7qzQLSX6dj-313" target="06ex_0QSgv7qzQLSX6dj-304" edge="1">
          <mxGeometry width="50" height="50" relative="1" as="geometry">
            <mxPoint x="615" y="488.5" as="sourcePoint" />
            <mxPoint x="675" y="490.5" as="targetPoint" />
          </mxGeometry>
        </mxCell>
        <mxCell id="06ex_0QSgv7qzQLSX6dj-315" value="&lt;span style=&quot;font-size:11.0pt;line-height:107%;&lt;br/&gt;font-family:&amp;quot;Aptos&amp;quot;,sans-serif;mso-ascii-theme-font:minor-latin;mso-fareast-font-family:&lt;br/&gt;Aptos;mso-fareast-theme-font:minor-latin;mso-hansi-theme-font:minor-latin;&lt;br/&gt;mso-bidi-font-family:&amp;quot;Times New Roman&amp;quot;;mso-bidi-theme-font:minor-bidi;&lt;br/&gt;mso-ansi-language:PT;mso-fareast-language:EN-US;mso-bidi-language:AR-SA&quot;&gt;Data_Ultimo_Carregamento&lt;/span&gt;" style="ellipse;whiteSpace=wrap;html=1;" parent="1" vertex="1">
          <mxGeometry x="430" y="467.5" width="190" height="30" as="geometry" />
        </mxCell>
        <mxCell id="06ex_0QSgv7qzQLSX6dj-316" value="" style="endArrow=none;html=1;rounded=0;" parent="1" source="06ex_0QSgv7qzQLSX6dj-315" target="06ex_0QSgv7qzQLSX6dj-304" edge="1">
          <mxGeometry width="50" height="50" relative="1" as="geometry">
            <mxPoint x="850" y="607.5" as="sourcePoint" />
            <mxPoint x="779" y="517.5" as="targetPoint" />
          </mxGeometry>
        </mxCell>
        <mxCell id="06ex_0QSgv7qzQLSX6dj-317" value="&lt;b&gt;Sessao_Jogo&lt;/b&gt;" style="rounded=1;whiteSpace=wrap;html=1;" parent="1" vertex="1">
          <mxGeometry x="660" y="80" width="90" height="30" as="geometry" />
        </mxCell>
        <mxCell id="06ex_0QSgv7qzQLSX6dj-318" value="Pontuacao_Final" style="ellipse;whiteSpace=wrap;html=1;" parent="1" vertex="1">
          <mxGeometry x="655" y="-15" width="100" height="30" as="geometry" />
        </mxCell>
        <mxCell id="06ex_0QSgv7qzQLSX6dj-319" value="" style="endArrow=none;html=1;rounded=0;" parent="1" source="06ex_0QSgv7qzQLSX6dj-318" target="06ex_0QSgv7qzQLSX6dj-317" edge="1">
          <mxGeometry width="50" height="50" relative="1" as="geometry">
            <mxPoint x="655" y="190" as="sourcePoint" />
            <mxPoint x="700" y="82.34375" as="targetPoint" />
          </mxGeometry>
        </mxCell>
        <mxCell id="06ex_0QSgv7qzQLSX6dj-320" value="Status_sessao" style="ellipse;whiteSpace=wrap;html=1;" parent="1" vertex="1">
          <mxGeometry x="720" y="20" width="100" height="30" as="geometry" />
        </mxCell>
        <mxCell id="06ex_0QSgv7qzQLSX6dj-321" value="" style="endArrow=none;html=1;rounded=0;" parent="1" source="06ex_0QSgv7qzQLSX6dj-320" target="06ex_0QSgv7qzQLSX6dj-317" edge="1">
          <mxGeometry width="50" height="50" relative="1" as="geometry">
            <mxPoint x="728" y="160" as="sourcePoint" />
            <mxPoint x="745" y="50" as="targetPoint" />
          </mxGeometry>
        </mxCell>
        <mxCell id="06ex_0QSgv7qzQLSX6dj-322" value="Tempo_Jogado" style="ellipse;whiteSpace=wrap;html=1;" parent="1" vertex="1">
          <mxGeometry x="600" y="20" width="90" height="30" as="geometry" />
        </mxCell>
        <mxCell id="06ex_0QSgv7qzQLSX6dj-323" value="" style="endArrow=none;html=1;rounded=0;" parent="1" source="06ex_0QSgv7qzQLSX6dj-322" target="06ex_0QSgv7qzQLSX6dj-317" edge="1">
          <mxGeometry width="50" height="50" relative="1" as="geometry">
            <mxPoint x="675" y="210" as="sourcePoint" />
            <mxPoint x="692" y="100" as="targetPoint" />
          </mxGeometry>
        </mxCell>
        <mxCell id="06ex_0QSgv7qzQLSX6dj-326" value="&lt;b&gt;&lt;u&gt;ID_sessao&lt;/u&gt;&lt;/b&gt;" style="ellipse;whiteSpace=wrap;html=1;" parent="1" vertex="1">
          <mxGeometry x="545" y="135" width="100" height="25" as="geometry" />
        </mxCell>
        <mxCell id="06ex_0QSgv7qzQLSX6dj-327" value="" style="endArrow=none;html=1;rounded=0;" parent="1" source="06ex_0QSgv7qzQLSX6dj-326" target="06ex_0QSgv7qzQLSX6dj-317" edge="1">
          <mxGeometry width="50" height="50" relative="1" as="geometry">
            <mxPoint x="605" y="101" as="sourcePoint" />
            <mxPoint x="665" y="103" as="targetPoint" />
          </mxGeometry>
        </mxCell>
        <mxCell id="06ex_0QSgv7qzQLSX6dj-337" value="&lt;b&gt;Manuten칞칚o&lt;/b&gt;" style="rounded=1;whiteSpace=wrap;html=1;" parent="1" vertex="1">
          <mxGeometry x="1000" y="647.5" width="90" height="30" as="geometry" />
        </mxCell>
        <mxCell id="06ex_0QSgv7qzQLSX6dj-338" value="Data_Inicio" style="ellipse;whiteSpace=wrap;html=1;" parent="1" vertex="1">
          <mxGeometry x="995" y="590" width="100" height="30" as="geometry" />
        </mxCell>
        <mxCell id="06ex_0QSgv7qzQLSX6dj-339" value="" style="endArrow=none;html=1;rounded=0;" parent="1" source="06ex_0QSgv7qzQLSX6dj-338" target="06ex_0QSgv7qzQLSX6dj-337" edge="1">
          <mxGeometry width="50" height="50" relative="1" as="geometry">
            <mxPoint x="1027" y="762.5" as="sourcePoint" />
            <mxPoint x="1072" y="654.84375" as="targetPoint" />
          </mxGeometry>
        </mxCell>
        <mxCell id="06ex_0QSgv7qzQLSX6dj-340" value="Data_Fim" style="ellipse;whiteSpace=wrap;html=1;" parent="1" vertex="1">
          <mxGeometry x="1080" y="570" width="100" height="30" as="geometry" />
        </mxCell>
        <mxCell id="06ex_0QSgv7qzQLSX6dj-341" value="" style="endArrow=none;html=1;rounded=0;" parent="1" source="06ex_0QSgv7qzQLSX6dj-340" target="06ex_0QSgv7qzQLSX6dj-337" edge="1">
          <mxGeometry width="50" height="50" relative="1" as="geometry">
            <mxPoint x="1100" y="732.5" as="sourcePoint" />
            <mxPoint x="1117" y="622.5" as="targetPoint" />
          </mxGeometry>
        </mxCell>
        <mxCell id="06ex_0QSgv7qzQLSX6dj-342" value="Tipo" style="ellipse;whiteSpace=wrap;html=1;" parent="1" vertex="1">
          <mxGeometry x="905" y="582.5" width="90" height="30" as="geometry" />
        </mxCell>
        <mxCell id="06ex_0QSgv7qzQLSX6dj-343" value="" style="endArrow=none;html=1;rounded=0;" parent="1" source="06ex_0QSgv7qzQLSX6dj-342" target="06ex_0QSgv7qzQLSX6dj-337" edge="1">
          <mxGeometry width="50" height="50" relative="1" as="geometry">
            <mxPoint x="1047" y="782.5" as="sourcePoint" />
            <mxPoint x="1064" y="672.5" as="targetPoint" />
          </mxGeometry>
        </mxCell>
        <mxCell id="06ex_0QSgv7qzQLSX6dj-344" value="&lt;b&gt;&lt;u&gt;ID_manuten칞칚o&lt;/u&gt;&lt;/b&gt;" style="ellipse;whiteSpace=wrap;html=1;" parent="1" vertex="1">
          <mxGeometry x="1100" y="682.5" width="100" height="25" as="geometry" />
        </mxCell>
        <mxCell id="06ex_0QSgv7qzQLSX6dj-345" value="" style="endArrow=none;html=1;rounded=0;" parent="1" source="06ex_0QSgv7qzQLSX6dj-344" target="06ex_0QSgv7qzQLSX6dj-337" edge="1">
          <mxGeometry width="50" height="50" relative="1" as="geometry">
            <mxPoint x="977" y="673.5" as="sourcePoint" />
            <mxPoint x="1037" y="675.5" as="targetPoint" />
          </mxGeometry>
        </mxCell>
        <mxCell id="06ex_0QSgv7qzQLSX6dj-346" value="Descri칞칚o" style="ellipse;whiteSpace=wrap;html=1;" parent="1" vertex="1">
          <mxGeometry x="1126" y="602.5" width="100" height="30" as="geometry" />
        </mxCell>
        <mxCell id="06ex_0QSgv7qzQLSX6dj-347" value="" style="endArrow=none;html=1;rounded=0;" parent="1" source="06ex_0QSgv7qzQLSX6dj-346" target="06ex_0QSgv7qzQLSX6dj-337" edge="1">
          <mxGeometry width="50" height="50" relative="1" as="geometry">
            <mxPoint x="1200" y="727.5" as="sourcePoint" />
            <mxPoint x="1171" y="647.5" as="targetPoint" />
          </mxGeometry>
        </mxCell>
        <mxCell id="06ex_0QSgv7qzQLSX6dj-348" value="Status" style="ellipse;whiteSpace=wrap;html=1;" parent="1" vertex="1">
          <mxGeometry x="1170" y="637.5" width="100" height="30" as="geometry" />
        </mxCell>
        <mxCell id="06ex_0QSgv7qzQLSX6dj-349" value="" style="endArrow=none;html=1;rounded=0;" parent="1" source="06ex_0QSgv7qzQLSX6dj-348" target="06ex_0QSgv7qzQLSX6dj-337" edge="1">
          <mxGeometry width="50" height="50" relative="1" as="geometry">
            <mxPoint x="1226" y="775" as="sourcePoint" />
            <mxPoint x="1117" y="700" as="targetPoint" />
          </mxGeometry>
        </mxCell>
        <mxCell id="06ex_0QSgv7qzQLSX6dj-363" value="&lt;b&gt;Evento&lt;/b&gt;" style="rounded=1;whiteSpace=wrap;html=1;" parent="1" vertex="1">
          <mxGeometry x="660" y="860" width="90" height="30" as="geometry" />
        </mxCell>
        <mxCell id="06ex_0QSgv7qzQLSX6dj-364" value="Data_Inicio" style="ellipse;whiteSpace=wrap;html=1;" parent="1" vertex="1">
          <mxGeometry x="530" y="810" width="100" height="30" as="geometry" />
        </mxCell>
        <mxCell id="06ex_0QSgv7qzQLSX6dj-365" value="" style="endArrow=none;html=1;rounded=0;" parent="1" source="06ex_0QSgv7qzQLSX6dj-364" target="06ex_0QSgv7qzQLSX6dj-363" edge="1">
          <mxGeometry width="50" height="50" relative="1" as="geometry">
            <mxPoint x="650" y="970" as="sourcePoint" />
            <mxPoint x="695" y="862.34375" as="targetPoint" />
          </mxGeometry>
        </mxCell>
        <mxCell id="06ex_0QSgv7qzQLSX6dj-366" value="Data_Fim" style="ellipse;whiteSpace=wrap;html=1;" parent="1" vertex="1">
          <mxGeometry x="755" y="780" width="100" height="30" as="geometry" />
        </mxCell>
        <mxCell id="06ex_0QSgv7qzQLSX6dj-367" value="" style="endArrow=none;html=1;rounded=0;" parent="1" source="06ex_0QSgv7qzQLSX6dj-366" target="06ex_0QSgv7qzQLSX6dj-363" edge="1">
          <mxGeometry width="50" height="50" relative="1" as="geometry">
            <mxPoint x="723" y="940" as="sourcePoint" />
            <mxPoint x="740" y="830" as="targetPoint" />
          </mxGeometry>
        </mxCell>
        <mxCell id="06ex_0QSgv7qzQLSX6dj-368" value="Nome" style="ellipse;whiteSpace=wrap;html=1;" parent="1" vertex="1">
          <mxGeometry x="500" y="850" width="90" height="30" as="geometry" />
        </mxCell>
        <mxCell id="06ex_0QSgv7qzQLSX6dj-369" value="" style="endArrow=none;html=1;rounded=0;" parent="1" source="06ex_0QSgv7qzQLSX6dj-368" target="06ex_0QSgv7qzQLSX6dj-363" edge="1">
          <mxGeometry width="50" height="50" relative="1" as="geometry">
            <mxPoint x="670" y="990" as="sourcePoint" />
            <mxPoint x="687" y="880" as="targetPoint" />
          </mxGeometry>
        </mxCell>
        <mxCell id="06ex_0QSgv7qzQLSX6dj-370" value="&lt;b&gt;&lt;u&gt;ID_evento&lt;/u&gt;&lt;/b&gt;" style="ellipse;whiteSpace=wrap;html=1;" parent="1" vertex="1">
          <mxGeometry x="540" y="915" width="100" height="25" as="geometry" />
        </mxCell>
        <mxCell id="06ex_0QSgv7qzQLSX6dj-371" value="" style="endArrow=none;html=1;rounded=0;" parent="1" source="06ex_0QSgv7qzQLSX6dj-370" target="06ex_0QSgv7qzQLSX6dj-363" edge="1">
          <mxGeometry width="50" height="50" relative="1" as="geometry">
            <mxPoint x="600" y="881" as="sourcePoint" />
            <mxPoint x="660" y="883" as="targetPoint" />
          </mxGeometry>
        </mxCell>
        <mxCell id="06ex_0QSgv7qzQLSX6dj-372" value="Capacidade" style="ellipse;whiteSpace=wrap;html=1;" parent="1" vertex="1">
          <mxGeometry x="780" y="820" width="100" height="30" as="geometry" />
        </mxCell>
        <mxCell id="06ex_0QSgv7qzQLSX6dj-373" value="" style="endArrow=none;html=1;rounded=0;" parent="1" source="06ex_0QSgv7qzQLSX6dj-372" target="06ex_0QSgv7qzQLSX6dj-363" edge="1">
          <mxGeometry width="50" height="50" relative="1" as="geometry">
            <mxPoint x="823" y="935" as="sourcePoint" />
            <mxPoint x="794" y="855" as="targetPoint" />
          </mxGeometry>
        </mxCell>
        <mxCell id="06ex_0QSgv7qzQLSX6dj-374" value="Status" style="ellipse;whiteSpace=wrap;html=1;" parent="1" vertex="1">
          <mxGeometry x="777" y="860" width="100" height="30" as="geometry" />
        </mxCell>
        <mxCell id="06ex_0QSgv7qzQLSX6dj-375" value="" style="endArrow=none;html=1;rounded=0;" parent="1" source="06ex_0QSgv7qzQLSX6dj-374" target="06ex_0QSgv7qzQLSX6dj-363" edge="1">
          <mxGeometry width="50" height="50" relative="1" as="geometry">
            <mxPoint x="849" y="982.5" as="sourcePoint" />
            <mxPoint x="740" y="907.5" as="targetPoint" />
          </mxGeometry>
        </mxCell>
        <mxCell id="06ex_0QSgv7qzQLSX6dj-376" value="&lt;b&gt;Programa_Fidelidade&lt;/b&gt;" style="rounded=1;whiteSpace=wrap;html=1;" parent="1" vertex="1">
          <mxGeometry x="1074" y="280" width="136" height="30" as="geometry" />
        </mxCell>
        <mxCell id="06ex_0QSgv7qzQLSX6dj-377" value="Data_Inicio" style="ellipse;whiteSpace=wrap;html=1;" parent="1" vertex="1">
          <mxGeometry x="1000" y="190" width="100" height="30" as="geometry" />
        </mxCell>
        <mxCell id="06ex_0QSgv7qzQLSX6dj-378" value="" style="endArrow=none;html=1;rounded=0;" parent="1" source="06ex_0QSgv7qzQLSX6dj-377" target="06ex_0QSgv7qzQLSX6dj-376" edge="1">
          <mxGeometry width="50" height="50" relative="1" as="geometry">
            <mxPoint x="1100" y="390" as="sourcePoint" />
            <mxPoint x="1145" y="282.34375" as="targetPoint" />
          </mxGeometry>
        </mxCell>
        <mxCell id="06ex_0QSgv7qzQLSX6dj-379" value="Data_Fim" style="ellipse;whiteSpace=wrap;html=1;" parent="1" vertex="1">
          <mxGeometry x="1090" y="210" width="100" height="30" as="geometry" />
        </mxCell>
        <mxCell id="06ex_0QSgv7qzQLSX6dj-380" value="" style="endArrow=none;html=1;rounded=0;" parent="1" source="06ex_0QSgv7qzQLSX6dj-379" target="06ex_0QSgv7qzQLSX6dj-376" edge="1">
          <mxGeometry width="50" height="50" relative="1" as="geometry">
            <mxPoint x="1173" y="360" as="sourcePoint" />
            <mxPoint x="1190" y="250" as="targetPoint" />
          </mxGeometry>
        </mxCell>
        <mxCell id="06ex_0QSgv7qzQLSX6dj-381" value="Nome" style="ellipse;whiteSpace=wrap;html=1;" parent="1" vertex="1">
          <mxGeometry x="945" y="225" width="90" height="30" as="geometry" />
        </mxCell>
        <mxCell id="06ex_0QSgv7qzQLSX6dj-382" value="" style="endArrow=none;html=1;rounded=0;" parent="1" source="06ex_0QSgv7qzQLSX6dj-381" target="06ex_0QSgv7qzQLSX6dj-376" edge="1">
          <mxGeometry width="50" height="50" relative="1" as="geometry">
            <mxPoint x="1120" y="410" as="sourcePoint" />
            <mxPoint x="1137" y="300" as="targetPoint" />
          </mxGeometry>
        </mxCell>
        <mxCell id="06ex_0QSgv7qzQLSX6dj-383" value="&lt;b&gt;&lt;u&gt;ID_p&lt;/u&gt;&lt;/b&gt;&lt;b&gt;rograma_Fidelidade&lt;/b&gt;" style="ellipse;whiteSpace=wrap;html=1;" parent="1" vertex="1">
          <mxGeometry x="1210" y="340" width="154" height="40" as="geometry" />
        </mxCell>
        <mxCell id="06ex_0QSgv7qzQLSX6dj-384" value="" style="endArrow=none;html=1;rounded=0;" parent="1" source="06ex_0QSgv7qzQLSX6dj-383" target="06ex_0QSgv7qzQLSX6dj-376" edge="1">
          <mxGeometry width="50" height="50" relative="1" as="geometry">
            <mxPoint x="1050" y="301" as="sourcePoint" />
            <mxPoint x="1110" y="303" as="targetPoint" />
          </mxGeometry>
        </mxCell>
        <mxCell id="06ex_0QSgv7qzQLSX6dj-385" value="Requisitos" style="ellipse;whiteSpace=wrap;html=1;" parent="1" vertex="1">
          <mxGeometry x="1210" y="200" width="100" height="30" as="geometry" />
        </mxCell>
        <mxCell id="06ex_0QSgv7qzQLSX6dj-386" value="" style="endArrow=none;html=1;rounded=0;" parent="1" source="06ex_0QSgv7qzQLSX6dj-385" target="06ex_0QSgv7qzQLSX6dj-376" edge="1">
          <mxGeometry width="50" height="50" relative="1" as="geometry">
            <mxPoint x="1273" y="355" as="sourcePoint" />
            <mxPoint x="1244" y="275" as="targetPoint" />
          </mxGeometry>
        </mxCell>
        <mxCell id="06ex_0QSgv7qzQLSX6dj-387" value="Descri칞칚o" style="ellipse;whiteSpace=wrap;html=1;" parent="1" vertex="1">
          <mxGeometry x="1226" y="250" width="100" height="30" as="geometry" />
        </mxCell>
        <mxCell id="06ex_0QSgv7qzQLSX6dj-388" value="" style="endArrow=none;html=1;rounded=0;" parent="1" source="06ex_0QSgv7qzQLSX6dj-387" target="06ex_0QSgv7qzQLSX6dj-376" edge="1">
          <mxGeometry width="50" height="50" relative="1" as="geometry">
            <mxPoint x="1299" y="402.5" as="sourcePoint" />
            <mxPoint x="1190" y="327.5" as="targetPoint" />
          </mxGeometry>
        </mxCell>
        <mxCell id="06ex_0QSgv7qzQLSX6dj-389" value="Tipo" style="ellipse;whiteSpace=wrap;html=1;" parent="1" vertex="1">
          <mxGeometry x="1243" y="290" width="100" height="30" as="geometry" />
        </mxCell>
        <mxCell id="06ex_0QSgv7qzQLSX6dj-390" value="" style="endArrow=none;html=1;rounded=0;" parent="1" source="06ex_0QSgv7qzQLSX6dj-389" target="06ex_0QSgv7qzQLSX6dj-376" edge="1">
          <mxGeometry width="50" height="50" relative="1" as="geometry">
            <mxPoint x="1316" y="442.5" as="sourcePoint" />
            <mxPoint x="1226" y="320" as="targetPoint" />
          </mxGeometry>
        </mxCell>
        <mxCell id="06ex_0QSgv7qzQLSX6dj-408" value="&lt;b&gt;Promo칞칚o&lt;/b&gt;" style="rounded=1;whiteSpace=wrap;html=1;" parent="1" vertex="1">
          <mxGeometry x="258.75" y="280" width="90" height="30" as="geometry" />
        </mxCell>
        <mxCell id="06ex_0QSgv7qzQLSX6dj-409" value="Data_Inicio" style="ellipse;whiteSpace=wrap;html=1;" parent="1" vertex="1">
          <mxGeometry x="120" y="225" width="100" height="30" as="geometry" />
        </mxCell>
        <mxCell id="06ex_0QSgv7qzQLSX6dj-410" value="" style="endArrow=none;html=1;rounded=0;" parent="1" source="06ex_0QSgv7qzQLSX6dj-409" target="06ex_0QSgv7qzQLSX6dj-408" edge="1">
          <mxGeometry width="50" height="50" relative="1" as="geometry">
            <mxPoint x="258.75" y="390" as="sourcePoint" />
            <mxPoint x="303.75" y="282.34375" as="targetPoint" />
          </mxGeometry>
        </mxCell>
        <mxCell id="06ex_0QSgv7qzQLSX6dj-411" value="Data_Fim" style="ellipse;whiteSpace=wrap;html=1;" parent="1" vertex="1">
          <mxGeometry x="210" y="200" width="100" height="30" as="geometry" />
        </mxCell>
        <mxCell id="06ex_0QSgv7qzQLSX6dj-412" value="" style="endArrow=none;html=1;rounded=0;" parent="1" source="06ex_0QSgv7qzQLSX6dj-411" target="06ex_0QSgv7qzQLSX6dj-408" edge="1">
          <mxGeometry width="50" height="50" relative="1" as="geometry">
            <mxPoint x="331.75" y="360" as="sourcePoint" />
            <mxPoint x="348.75" y="250" as="targetPoint" />
          </mxGeometry>
        </mxCell>
        <mxCell id="06ex_0QSgv7qzQLSX6dj-415" value="&lt;b&gt;&lt;u&gt;ID_promo칞칚o&lt;/u&gt;&lt;/b&gt;" style="ellipse;whiteSpace=wrap;html=1;" parent="1" vertex="1">
          <mxGeometry x="130" y="275" width="100" height="25" as="geometry" />
        </mxCell>
        <mxCell id="06ex_0QSgv7qzQLSX6dj-416" value="" style="endArrow=none;html=1;rounded=0;" parent="1" source="06ex_0QSgv7qzQLSX6dj-415" target="06ex_0QSgv7qzQLSX6dj-408" edge="1">
          <mxGeometry width="50" height="50" relative="1" as="geometry">
            <mxPoint x="208.75" y="301" as="sourcePoint" />
            <mxPoint x="268.75" y="303" as="targetPoint" />
          </mxGeometry>
        </mxCell>
        <mxCell id="06ex_0QSgv7qzQLSX6dj-417" value="Nome" style="ellipse;whiteSpace=wrap;html=1;" parent="1" vertex="1">
          <mxGeometry x="70" y="310" width="100" height="30" as="geometry" />
        </mxCell>
        <mxCell id="06ex_0QSgv7qzQLSX6dj-418" value="" style="endArrow=none;html=1;rounded=0;" parent="1" source="06ex_0QSgv7qzQLSX6dj-417" target="06ex_0QSgv7qzQLSX6dj-408" edge="1">
          <mxGeometry width="50" height="50" relative="1" as="geometry">
            <mxPoint x="431.75" y="355" as="sourcePoint" />
            <mxPoint x="402.75" y="275" as="targetPoint" />
          </mxGeometry>
        </mxCell>
        <mxCell id="06ex_0QSgv7qzQLSX6dj-421" value="Tipo" style="ellipse;whiteSpace=wrap;html=1;" parent="1" vertex="1">
          <mxGeometry x="210" y="332.5" width="45" height="20" as="geometry" />
        </mxCell>
        <mxCell id="06ex_0QSgv7qzQLSX6dj-422" value="" style="endArrow=none;html=1;rounded=0;" parent="1" source="06ex_0QSgv7qzQLSX6dj-421" target="06ex_0QSgv7qzQLSX6dj-408" edge="1">
          <mxGeometry width="50" height="50" relative="1" as="geometry">
            <mxPoint x="399.25" y="452.5" as="sourcePoint" />
            <mxPoint x="239.61538461538476" y="310" as="targetPoint" />
          </mxGeometry>
        </mxCell>
        <mxCell id="06ex_0QSgv7qzQLSX6dj-423" value="1" style="endArrow=none;html=1;rounded=0;fontSize=12;startSize=8;endSize=8;curved=1;" parent="1" source="06ex_0QSgv7qzQLSX6dj-424" target="06ex_0QSgv7qzQLSX6dj-376" edge="1">
          <mxGeometry x="0.8056" y="5" width="50" height="50" relative="1" as="geometry">
            <mxPoint x="720" y="550" as="sourcePoint" />
            <mxPoint x="770" y="500" as="targetPoint" />
            <mxPoint as="offset" />
          </mxGeometry>
        </mxCell>
        <mxCell id="06ex_0QSgv7qzQLSX6dj-425" value="N" style="endArrow=none;html=1;rounded=0;fontSize=12;startSize=8;endSize=8;curved=1;" parent="1" source="06ex_0QSgv7qzQLSX6dj-257" target="06ex_0QSgv7qzQLSX6dj-424" edge="1">
          <mxGeometry x="-0.8" y="5" width="50" height="50" relative="1" as="geometry">
            <mxPoint x="750" y="295" as="sourcePoint" />
            <mxPoint x="1074" y="295" as="targetPoint" />
            <mxPoint as="offset" />
          </mxGeometry>
        </mxCell>
        <mxCell id="06ex_0QSgv7qzQLSX6dj-424" value="Tem" style="rhombus;whiteSpace=wrap;html=1;" parent="1" vertex="1">
          <mxGeometry x="870" y="267.5" width="60" height="55" as="geometry" />
        </mxCell>
        <mxCell id="06ex_0QSgv7qzQLSX6dj-426" value="1" style="endArrow=none;html=1;rounded=0;fontSize=12;startSize=8;endSize=8;curved=1;" parent="1" source="06ex_0QSgv7qzQLSX6dj-427" target="06ex_0QSgv7qzQLSX6dj-257" edge="1">
          <mxGeometry x="0.6" y="-15" width="50" height="50" relative="1" as="geometry">
            <mxPoint x="670" y="370" as="sourcePoint" />
            <mxPoint x="720" y="320" as="targetPoint" />
            <mxPoint as="offset" />
          </mxGeometry>
        </mxCell>
        <mxCell id="06ex_0QSgv7qzQLSX6dj-428" value="1" style="endArrow=none;html=1;rounded=0;fontSize=12;curved=1;shape=link;" parent="1" source="06ex_0QSgv7qzQLSX6dj-304" target="06ex_0QSgv7qzQLSX6dj-427" edge="1">
          <mxGeometry x="-0.3333" y="-15" width="50" height="50" relative="1" as="geometry">
            <mxPoint x="705" y="467" as="sourcePoint" />
            <mxPoint x="705" y="310" as="targetPoint" />
            <mxPoint as="offset" />
          </mxGeometry>
        </mxCell>
        <mxCell id="06ex_0QSgv7qzQLSX6dj-427" value="Tem" style="rhombus;whiteSpace=wrap;html=1;" parent="1" vertex="1">
          <mxGeometry x="675" y="360" width="60" height="55" as="geometry" />
        </mxCell>
        <mxCell id="06ex_0QSgv7qzQLSX6dj-429" value="N" style="endArrow=none;html=1;rounded=0;fontSize=12;curved=1;shape=link;" parent="1" source="06ex_0QSgv7qzQLSX6dj-430" target="06ex_0QSgv7qzQLSX6dj-317" edge="1">
          <mxGeometry x="0.5789" y="-15" width="50" height="50" relative="1" as="geometry">
            <mxPoint x="590" y="450" as="sourcePoint" />
            <mxPoint x="640" y="400" as="targetPoint" />
            <mxPoint as="offset" />
            <Array as="points" />
          </mxGeometry>
        </mxCell>
        <mxCell id="06ex_0QSgv7qzQLSX6dj-431" value="1" style="endArrow=none;html=1;rounded=0;fontSize=12;startSize=8;endSize=8;curved=1;" parent="1" source="06ex_0QSgv7qzQLSX6dj-257" target="06ex_0QSgv7qzQLSX6dj-430" edge="1">
          <mxGeometry x="-0.7037" y="5" width="50" height="50" relative="1" as="geometry">
            <mxPoint x="705" y="280" as="sourcePoint" />
            <mxPoint x="705" y="110" as="targetPoint" />
            <mxPoint as="offset" />
          </mxGeometry>
        </mxCell>
        <mxCell id="06ex_0QSgv7qzQLSX6dj-430" value="Tem" style="rhombus;whiteSpace=wrap;html=1;" parent="1" vertex="1">
          <mxGeometry x="675" y="157.5" width="60" height="55" as="geometry" />
        </mxCell>
        <mxCell id="06ex_0QSgv7qzQLSX6dj-432" value="N" style="endArrow=none;html=1;rounded=0;fontSize=12;curved=1;shape=link;" parent="1" source="06ex_0QSgv7qzQLSX6dj-433" target="06ex_0QSgv7qzQLSX6dj-317" edge="1">
          <mxGeometry x="0.8261" y="5" width="50" height="50" relative="1" as="geometry">
            <mxPoint x="410" y="310" as="sourcePoint" />
            <mxPoint x="460" y="260" as="targetPoint" />
            <mxPoint as="offset" />
          </mxGeometry>
        </mxCell>
        <mxCell id="06ex_0QSgv7qzQLSX6dj-434" value="1" style="endArrow=none;html=1;rounded=0;fontSize=12;startSize=8;endSize=8;curved=1;" parent="1" source="06ex_0QSgv7qzQLSX6dj-128" target="06ex_0QSgv7qzQLSX6dj-433" edge="1">
          <mxGeometry x="-0.8" y="5" width="50" height="50" relative="1" as="geometry">
            <mxPoint x="380" y="95" as="sourcePoint" />
            <mxPoint x="660" y="95" as="targetPoint" />
            <mxPoint as="offset" />
          </mxGeometry>
        </mxCell>
        <mxCell id="06ex_0QSgv7qzQLSX6dj-433" value="Pertence" style="rhombus;whiteSpace=wrap;html=1;" parent="1" vertex="1">
          <mxGeometry x="480" y="67.5" width="65" height="55" as="geometry" />
        </mxCell>
        <mxCell id="06ex_0QSgv7qzQLSX6dj-435" value="N" style="endArrow=none;html=1;rounded=0;fontSize=12;curved=1;shape=link;" parent="1" source="06ex_0QSgv7qzQLSX6dj-436" target="06ex_0QSgv7qzQLSX6dj-304" edge="1">
          <mxGeometry x="0.3333" y="-15" width="50" height="50" relative="1" as="geometry">
            <mxPoint x="500" y="500" as="sourcePoint" />
            <mxPoint x="550" y="450" as="targetPoint" />
            <mxPoint as="offset" />
          </mxGeometry>
        </mxCell>
        <mxCell id="06ex_0QSgv7qzQLSX6dj-437" value="1" style="endArrow=none;html=1;rounded=0;fontSize=12;startSize=8;endSize=8;curved=1;" parent="1" source="06ex_0QSgv7qzQLSX6dj-271" target="06ex_0QSgv7qzQLSX6dj-436" edge="1">
          <mxGeometry x="-0.7391" y="-5" width="50" height="50" relative="1" as="geometry">
            <mxPoint x="705" y="648" as="sourcePoint" />
            <mxPoint x="705" y="498" as="targetPoint" />
            <mxPoint as="offset" />
          </mxGeometry>
        </mxCell>
        <mxCell id="06ex_0QSgv7qzQLSX6dj-436" value="Vende" style="rhombus;whiteSpace=wrap;html=1;" parent="1" vertex="1">
          <mxGeometry x="675" y="535" width="60" height="55" as="geometry" />
        </mxCell>
        <mxCell id="06ex_0QSgv7qzQLSX6dj-438" value="1" style="endArrow=none;html=1;rounded=0;fontSize=12;startSize=8;endSize=8;curved=1;" parent="1" source="06ex_0QSgv7qzQLSX6dj-440" target="06ex_0QSgv7qzQLSX6dj-271" edge="1">
          <mxGeometry x="0.5455" y="-5" width="50" height="50" relative="1" as="geometry">
            <mxPoint x="680" y="500" as="sourcePoint" />
            <mxPoint x="730" y="450" as="targetPoint" />
            <mxPoint as="offset" />
          </mxGeometry>
        </mxCell>
        <mxCell id="06ex_0QSgv7qzQLSX6dj-439" value="N" style="endArrow=none;html=1;rounded=0;fontSize=12;curved=1;shape=link;" parent="1" source="06ex_0QSgv7qzQLSX6dj-442" target="06ex_0QSgv7qzQLSX6dj-337" edge="1">
          <mxGeometry x="0.7955" y="13" width="50" height="50" relative="1" as="geometry">
            <mxPoint x="715" y="870" as="sourcePoint" />
            <mxPoint x="715" y="688" as="targetPoint" />
            <mxPoint as="offset" />
          </mxGeometry>
        </mxCell>
        <mxCell id="06ex_0QSgv7qzQLSX6dj-441" value="N" style="endArrow=none;html=1;rounded=0;fontSize=12;curved=1;shape=link;" parent="1" source="06ex_0QSgv7qzQLSX6dj-363" target="06ex_0QSgv7qzQLSX6dj-440" edge="1">
          <mxGeometry x="-0.7241" y="-15" width="50" height="50" relative="1" as="geometry">
            <mxPoint x="705" y="860" as="sourcePoint" />
            <mxPoint x="705" y="678" as="targetPoint" />
            <mxPoint as="offset" />
          </mxGeometry>
        </mxCell>
        <mxCell id="06ex_0QSgv7qzQLSX6dj-440" value="Respons치vel" style="rhombus;whiteSpace=wrap;html=1;" parent="1" vertex="1">
          <mxGeometry x="662.5" y="732.5" width="85" height="55" as="geometry" />
        </mxCell>
        <mxCell id="06ex_0QSgv7qzQLSX6dj-442" value="Respons치vel" style="rhombus;whiteSpace=wrap;html=1;" parent="1" vertex="1">
          <mxGeometry x="810" y="637.5" width="95" height="55" as="geometry" />
        </mxCell>
        <mxCell id="06ex_0QSgv7qzQLSX6dj-446" value="Tem" style="rhombus;whiteSpace=wrap;html=1;" parent="1" vertex="1">
          <mxGeometry x="460" y="577.5" width="40" height="32.5" as="geometry" />
        </mxCell>
        <mxCell id="06ex_0QSgv7qzQLSX6dj-449" value="M" style="endArrow=none;html=1;rounded=0;fontSize=12;startSize=8;endSize=8;curved=1;" parent="1" source="06ex_0QSgv7qzQLSX6dj-450" target="06ex_0QSgv7qzQLSX6dj-257" edge="1">
          <mxGeometry x="0.8618" y="4" width="50" height="50" relative="1" as="geometry">
            <mxPoint x="280" y="310" as="sourcePoint" />
            <mxPoint x="330" y="260" as="targetPoint" />
            <mxPoint as="offset" />
          </mxGeometry>
        </mxCell>
        <mxCell id="06ex_0QSgv7qzQLSX6dj-451" value="N" style="endArrow=none;html=1;rounded=0;fontSize=12;startSize=8;endSize=8;curved=1;" parent="1" source="06ex_0QSgv7qzQLSX6dj-408" target="06ex_0QSgv7qzQLSX6dj-450" edge="1">
          <mxGeometry x="-0.7778" y="4" width="50" height="50" relative="1" as="geometry">
            <mxPoint x="349" y="295" as="sourcePoint" />
            <mxPoint x="660" y="295" as="targetPoint" />
            <mxPoint as="offset" />
          </mxGeometry>
        </mxCell>
        <mxCell id="06ex_0QSgv7qzQLSX6dj-450" value="Usufrui" style="rhombus;whiteSpace=wrap;html=1;" parent="1" vertex="1">
          <mxGeometry x="450" y="265" width="65" height="55" as="geometry" />
        </mxCell>
        <mxCell id="nlP5LJQIT9z9BfBxfYn8-1" value="Vende" style="rhombus;whiteSpace=wrap;html=1;" vertex="1" parent="1">
          <mxGeometry x="1014" y="970" width="60" height="55" as="geometry" />
        </mxCell>
        <mxCell id="nlP5LJQIT9z9BfBxfYn8-2" value="N" style="endArrow=none;html=1;rounded=0;shape=link;" edge="1" parent="1" source="nlP5LJQIT9z9BfBxfYn8-1" target="06ex_0QSgv7qzQLSX6dj-337">
          <mxGeometry x="0.8465" y="-15" width="50" height="50" relative="1" as="geometry">
            <mxPoint x="1055" y="630" as="sourcePoint" />
            <mxPoint x="1055" y="658" as="targetPoint" />
            <mxPoint as="offset" />
          </mxGeometry>
        </mxCell>
        <mxCell id="nlP5LJQIT9z9BfBxfYn8-3" value="1" style="endArrow=none;html=1;rounded=0;" edge="1" parent="1" source="06ex_0QSgv7qzQLSX6dj-128" target="nlP5LJQIT9z9BfBxfYn8-1">
          <mxGeometry x="-0.9815" y="15" width="50" height="50" relative="1" as="geometry">
            <mxPoint x="1054" y="920" as="sourcePoint" />
            <mxPoint x="1055" y="688" as="targetPoint" />
            <Array as="points">
              <mxPoint x="335" y="160" />
              <mxPoint x="40" y="160" />
              <mxPoint x="40" y="998" />
            </Array>
            <mxPoint as="offset" />
          </mxGeometry>
        </mxCell>
        <mxCell id="nlP5LJQIT9z9BfBxfYn8-5" value="Fichas" style="ellipse;whiteSpace=wrap;html=1;" vertex="1" parent="1">
          <mxGeometry x="780" y="70" width="50" height="20" as="geometry" />
        </mxCell>
        <mxCell id="nlP5LJQIT9z9BfBxfYn8-6" value="" style="endArrow=none;html=1;rounded=0;" edge="1" parent="1" source="nlP5LJQIT9z9BfBxfYn8-5" target="06ex_0QSgv7qzQLSX6dj-317">
          <mxGeometry width="50" height="50" relative="1" as="geometry">
            <mxPoint x="765" y="59" as="sourcePoint" />
            <mxPoint x="731" y="90" as="targetPoint" />
          </mxGeometry>
        </mxCell>
        <mxCell id="nlP5LJQIT9z9BfBxfYn8-7" value="1" style="endArrow=none;html=1;rounded=0;fontSize=12;startSize=8;endSize=8;curved=1;" edge="1" parent="1" source="06ex_0QSgv7qzQLSX6dj-442" target="06ex_0QSgv7qzQLSX6dj-271">
          <mxGeometry x="0.5455" y="-5" width="50" height="50" relative="1" as="geometry">
            <mxPoint x="715" y="743" as="sourcePoint" />
            <mxPoint x="715" y="688" as="targetPoint" />
            <mxPoint as="offset" />
          </mxGeometry>
        </mxCell>
        <mxCell id="nlP5LJQIT9z9BfBxfYn8-13" value="&lt;b&gt;Carregamento&lt;/b&gt;" style="rounded=1;whiteSpace=wrap;html=1;" vertex="1" parent="1">
          <mxGeometry x="890" y="467.5" width="90" height="30" as="geometry" />
        </mxCell>
        <mxCell id="nlP5LJQIT9z9BfBxfYn8-14" value="N" style="endArrow=none;html=1;rounded=0;fontSize=12;curved=1;shape=link;" edge="1" parent="1" source="nlP5LJQIT9z9BfBxfYn8-15" target="nlP5LJQIT9z9BfBxfYn8-13">
          <mxGeometry x="0.7955" y="13" width="50" height="50" relative="1" as="geometry">
            <mxPoint x="825" y="647.5" as="sourcePoint" />
            <mxPoint x="825" y="465.5" as="targetPoint" />
            <mxPoint as="offset" />
          </mxGeometry>
        </mxCell>
        <mxCell id="nlP5LJQIT9z9BfBxfYn8-15" value="Faz" style="rhombus;whiteSpace=wrap;html=1;" vertex="1" parent="1">
          <mxGeometry x="815" y="467.5" width="40" height="30" as="geometry" />
        </mxCell>
        <mxCell id="nlP5LJQIT9z9BfBxfYn8-16" value="1" style="endArrow=none;html=1;rounded=0;fontSize=12;startSize=8;endSize=8;curved=1;" edge="1" parent="1" source="nlP5LJQIT9z9BfBxfYn8-15" target="06ex_0QSgv7qzQLSX6dj-304">
          <mxGeometry x="0.5455" y="-5" width="50" height="50" relative="1" as="geometry">
            <mxPoint x="825" y="520.5" as="sourcePoint" />
            <mxPoint x="860" y="440.5" as="targetPoint" />
            <mxPoint as="offset" />
          </mxGeometry>
        </mxCell>
        <mxCell id="nlP5LJQIT9z9BfBxfYn8-17" value="Valor" style="ellipse;whiteSpace=wrap;html=1;" vertex="1" parent="1">
          <mxGeometry x="915" y="429.5" width="40" height="20" as="geometry" />
        </mxCell>
        <mxCell id="nlP5LJQIT9z9BfBxfYn8-18" value="" style="endArrow=none;html=1;rounded=0;" edge="1" parent="1" source="nlP5LJQIT9z9BfBxfYn8-17" target="nlP5LJQIT9z9BfBxfYn8-13">
          <mxGeometry width="50" height="50" relative="1" as="geometry">
            <mxPoint x="995" y="537.5" as="sourcePoint" />
            <mxPoint x="1040" y="408" as="targetPoint" />
          </mxGeometry>
        </mxCell>
        <mxCell id="nlP5LJQIT9z9BfBxfYn8-19" value="Creditos" style="ellipse;whiteSpace=wrap;html=1;" vertex="1" parent="1">
          <mxGeometry x="970" y="438" width="60" height="19.5" as="geometry" />
        </mxCell>
        <mxCell id="nlP5LJQIT9z9BfBxfYn8-20" value="" style="endArrow=none;html=1;rounded=0;" edge="1" parent="1" source="nlP5LJQIT9z9BfBxfYn8-19" target="nlP5LJQIT9z9BfBxfYn8-13">
          <mxGeometry width="50" height="50" relative="1" as="geometry">
            <mxPoint x="1035" y="567" as="sourcePoint" />
            <mxPoint x="1080" y="437.5" as="targetPoint" />
          </mxGeometry>
        </mxCell>
        <mxCell id="nlP5LJQIT9z9BfBxfYn8-21" value="Faz" style="rhombus;whiteSpace=wrap;html=1;" vertex="1" parent="1">
          <mxGeometry x="815" y="535" width="40" height="30" as="geometry" />
        </mxCell>
        <mxCell id="nlP5LJQIT9z9BfBxfYn8-22" value="1" style="endArrow=none;html=1;rounded=0;fontSize=12;startSize=8;endSize=8;curved=1;" edge="1" parent="1" source="nlP5LJQIT9z9BfBxfYn8-21" target="06ex_0QSgv7qzQLSX6dj-271">
          <mxGeometry x="0.8053" y="-5" width="50" height="50" relative="1" as="geometry">
            <mxPoint x="852" y="581.5" as="sourcePoint" />
            <mxPoint x="777" y="535" as="targetPoint" />
            <mxPoint as="offset" />
          </mxGeometry>
        </mxCell>
        <mxCell id="nlP5LJQIT9z9BfBxfYn8-23" value="N" style="endArrow=none;html=1;rounded=0;fontSize=12;startSize=8;endSize=8;curved=1;" edge="1" parent="1" source="nlP5LJQIT9z9BfBxfYn8-13" target="nlP5LJQIT9z9BfBxfYn8-21">
          <mxGeometry x="-0.772" y="12" width="50" height="50" relative="1" as="geometry">
            <mxPoint x="914" y="453" as="sourcePoint" />
            <mxPoint x="760" y="484" as="targetPoint" />
            <mxPoint as="offset" />
          </mxGeometry>
        </mxCell>
        <mxCell id="nlP5LJQIT9z9BfBxfYn8-25" value="" style="triangle;whiteSpace=wrap;html=1;" vertex="1" parent="1">
          <mxGeometry x="465" y="648.75" width="40" height="62.5" as="geometry" />
        </mxCell>
        <mxCell id="nlP5LJQIT9z9BfBxfYn8-26" value="" style="endArrow=none;html=1;rounded=0;" edge="1" parent="1" source="nlP5LJQIT9z9BfBxfYn8-25" target="06ex_0QSgv7qzQLSX6dj-271">
          <mxGeometry width="50" height="50" relative="1" as="geometry">
            <mxPoint x="658" y="741" as="sourcePoint" />
            <mxPoint x="702" y="688" as="targetPoint" />
          </mxGeometry>
        </mxCell>
        <mxCell id="nlP5LJQIT9z9BfBxfYn8-27" value="" style="endArrow=none;html=1;rounded=0;" edge="1" parent="1" source="06ex_0QSgv7qzQLSX6dj-291" target="nlP5LJQIT9z9BfBxfYn8-25">
          <mxGeometry width="50" height="50" relative="1" as="geometry">
            <mxPoint x="668" y="751" as="sourcePoint" />
            <mxPoint x="712" y="698" as="targetPoint" />
          </mxGeometry>
        </mxCell>
        <mxCell id="nlP5LJQIT9z9BfBxfYn8-28" value="M" style="endArrow=none;html=1;rounded=0;" edge="1" parent="1" source="06ex_0QSgv7qzQLSX6dj-291" target="06ex_0QSgv7qzQLSX6dj-446">
          <mxGeometry x="-0.7963" y="9" width="50" height="50" relative="1" as="geometry">
            <mxPoint x="477" y="706" as="sourcePoint" />
            <mxPoint x="670" y="679" as="targetPoint" />
            <mxPoint x="1" as="offset" />
          </mxGeometry>
        </mxCell>
        <mxCell id="nlP5LJQIT9z9BfBxfYn8-29" value="N" style="endArrow=none;html=1;rounded=0;shape=link;" edge="1" parent="1" source="06ex_0QSgv7qzQLSX6dj-446" target="06ex_0QSgv7qzQLSX6dj-271">
          <mxGeometry x="0.6726" y="-10" width="50" height="50" relative="1" as="geometry">
            <mxPoint x="487" y="716" as="sourcePoint" />
            <mxPoint x="680" y="689" as="targetPoint" />
            <mxPoint as="offset" />
          </mxGeometry>
        </mxCell>
        <mxCell id="nlP5LJQIT9z9BfBxfYn8-33" value="Data_Inicio" style="ellipse;whiteSpace=wrap;html=1;" vertex="1" parent="1">
          <mxGeometry x="150" y="620" width="100" height="30" as="geometry" />
        </mxCell>
        <mxCell id="nlP5LJQIT9z9BfBxfYn8-34" value="" style="endArrow=none;html=1;rounded=0;" edge="1" parent="1" source="nlP5LJQIT9z9BfBxfYn8-33" target="06ex_0QSgv7qzQLSX6dj-291">
          <mxGeometry width="50" height="50" relative="1" as="geometry">
            <mxPoint x="250.0028301182686" y="637.5018706018407" as="sourcePoint" />
            <mxPoint x="302.04" y="637.74" as="targetPoint" />
          </mxGeometry>
        </mxCell>
        <mxCell id="nlP5LJQIT9z9BfBxfYn8-35" value="Data_Fim" style="ellipse;whiteSpace=wrap;html=1;" vertex="1" parent="1">
          <mxGeometry x="150" y="662.5" width="100" height="30" as="geometry" />
        </mxCell>
        <mxCell id="nlP5LJQIT9z9BfBxfYn8-36" value="" style="endArrow=none;html=1;rounded=0;" edge="1" parent="1" source="nlP5LJQIT9z9BfBxfYn8-35" target="06ex_0QSgv7qzQLSX6dj-291">
          <mxGeometry width="50" height="50" relative="1" as="geometry">
            <mxPoint x="255.45215710622307" y="670.2979159246477" as="sourcePoint" />
            <mxPoint x="151.04000000000002" y="775.24" as="targetPoint" />
          </mxGeometry>
        </mxCell>
        <mxCell id="nlP5LJQIT9z9BfBxfYn8-37" value="Responsabilidade" style="ellipse;whiteSpace=wrap;html=1;" vertex="1" parent="1">
          <mxGeometry x="272.04" y="706.49" width="110" height="30" as="geometry" />
        </mxCell>
        <mxCell id="nlP5LJQIT9z9BfBxfYn8-40" value="Contacto" style="ellipse;whiteSpace=wrap;html=1;" vertex="1" parent="1">
          <mxGeometry x="630" y="700" width="60" height="27.5" as="geometry" />
        </mxCell>
        <mxCell id="nlP5LJQIT9z9BfBxfYn8-41" value="" style="endArrow=none;html=1;rounded=0;" edge="1" parent="1" source="nlP5LJQIT9z9BfBxfYn8-40" target="06ex_0QSgv7qzQLSX6dj-271">
          <mxGeometry width="50" height="50" relative="1" as="geometry">
            <mxPoint x="740" y="796.25" as="sourcePoint" />
            <mxPoint x="717.4324324324323" y="686.25" as="targetPoint" />
          </mxGeometry>
        </mxCell>
      </root>
    </mxGraphModel>
  </diagram>
</mxfile>
